<svg width="700" height="200" viewBox="0 0 700 200" fill="none" xmlns="http://www.w3.org/2000/svg">
<path d="M93.75 137.5C124.816 137.5 150 112.316 150 81.25C150 50.184 124.816 25 93.75 25C62.684 25 37.5 50.184 37.5 81.25C37.5 112.316 62.684 137.5 93.75 137.5Z" fill="url(#paint0_radial_2330_46)"/>
<path d="M93.75 137.5C124.816 137.5 150 112.316 150 81.25C150 50.184 124.816 25 93.75 25C62.684 25 37.5 50.184 37.5 81.25C37.5 112.316 62.684 137.5 93.75 137.5Z" fill="url(#paint1_radial_2330_46)" fill-opacity="0.6"/>
<path d="M93.75 137.5C124.816 137.5 150 112.316 150 81.25C150 50.184 124.816 25 93.75 25C62.684 25 37.5 50.184 37.5 81.25C37.5 112.316 62.684 137.5 93.75 137.5Z" fill="url(#paint2_radial_2330_46)" fill-opacity="0.6"/>
<path d="M162.5 75H112.5C98.6929 75 87.5 86.1929 87.5 100V150C87.5 163.807 98.6929 175 112.5 175H162.5C176.307 175 187.5 163.807 187.5 150V100C187.5 86.1929 176.307 75 162.5 75Z" fill="url(#paint3_radial_2330_46)"/>
<path fill-rule="evenodd" clip-rule="evenodd" d="M93.75 137.5C101.665 137.502 109.491 135.833 116.717 132.602C123.943 129.372 130.406 124.653 135.683 118.754C140.961 112.855 144.934 105.909 147.343 98.3689C149.751 90.8292 150.542 82.8661 149.662 75H112.5C105.87 75 99.5107 77.6339 94.8223 82.3223C90.1339 87.0107 87.5 93.3696 87.5 100V137.162C89.55 137.387 91.6333 137.5 93.75 137.5Z" fill="url(#paint4_linear_2330_46)"/>
<path fill-rule="evenodd" clip-rule="evenodd" d="M93.75 137.5C101.665 137.502 109.491 135.833 116.717 132.602C123.943 129.372 130.406 124.653 135.683 118.754C140.961 112.855 144.934 105.909 147.343 98.3689C149.751 90.8292 150.542 82.8661 149.662 75H112.5C105.87 75 99.5107 77.6339 94.8223 82.3223C90.1339 87.0107 87.5 93.3696 87.5 100V137.162C89.55 137.387 91.6333 137.5 93.75 137.5Z" fill="url(#paint5_linear_2330_46)"/>
<path d="M62.5 121.475C62.5 164.6 49.225 187.1 37.5 187.1C27.35 187.1 12.5 168.425 12.5 121.475C12.5 81.375 23.6875 75 37.5 75C49.8 75 62.5 78.35 62.5 121.475Z" fill="url(#paint6_linear_2330_46)"/>
<path d="M62.5 121.475C62.5 164.6 49.225 187.1 37.5 187.1C27.35 187.1 12.5 168.425 12.5 121.475C12.5 81.375 23.6875 75 37.5 75C49.8 75 62.5 78.35 62.5 121.475Z" fill="url(#paint7_radial_2330_46)" fill-opacity="0.5"/>
<path d="M62.5 121.475C62.5 164.6 49.225 187.1 37.5 187.1C27.35 187.1 12.5 168.425 12.5 121.475C12.5 81.375 23.6875 75 37.5 75C49.8 75 62.5 78.35 62.5 121.475Z" fill="url(#paint8_linear_2330_46)"/>
<path d="M62.5 121.475C62.5 164.6 49.225 187.1 37.5 187.1C27.35 187.1 12.5 168.425 12.5 121.475C12.5 81.375 23.6875 75 37.5 75C49.8 75 62.5 78.35 62.5 121.475Z" fill="url(#paint9_radial_2330_46)" fill-opacity="0.7"/>
<path d="M13.0752 107.212C15.5252 79.8 25.5252 75 37.5002 75C48.2877 75 59.3752 77.575 61.9377 107.212C54.4764 111.383 46.0603 113.545 37.5127 113.488C28.9609 113.547 20.5401 111.385 13.0752 107.212Z" fill="white" fill-opacity="0.15"/>
<path d="M44.75 14.0625C45.7618 14.9516 46.4594 16.1438 46.7387 17.4615C47.018 18.7792 46.8641 20.1518 46.3 21.375C46.1545 21.7884 46.0825 22.2242 46.0875 22.6625C46.0875 23.45 46.2875 24.95 48.175 26.825C49.825 28.4875 50.7875 29.2625 52.675 31.1C54.3 32.65 56.0125 34.475 57.55 36.7625C60.7375 41.55 62.5 47.5375 62.5 56.25C62.5 74.625 50.2875 87.5 37.5 87.5C24.7125 87.5 12.5 74.625 12.5 56.25C12.5 47.25 16.275 37.4125 21.1125 29.925C24 25.05 28.0625 20.9625 31.2125 18.2125C33.1042 16.5375 35.0875 14.9833 37.1625 13.55C38.3087 12.7859 39.6752 12.422 41.0496 12.5147C42.424 12.6073 43.7293 13.1515 44.7625 14.0625" fill="url(#paint10_radial_2330_46)"/>
<path d="M268.64 99.632C272.416 100.336 275.52 102.224 277.952 105.296C280.384 108.368 281.6 111.888 281.6 115.856C281.6 119.44 280.704 122.608 278.912 125.36C277.184 128.048 274.656 130.16 271.328 131.696C268 133.232 264.064 134 259.52 134H230.624V66.992H258.272C262.816 66.992 266.72 67.728 269.984 69.2C273.312 70.672 275.808 72.72 277.472 75.344C279.2 77.968 280.064 80.944 280.064 84.272C280.064 88.176 279.008 91.44 276.896 94.064C274.848 96.688 272.096 98.544 268.64 99.632ZM244.064 94.64H256.352C259.552 94.64 262.016 93.936 263.744 92.528C265.472 91.056 266.336 88.976 266.336 86.288C266.336 83.6 265.472 81.52 263.744 80.048C262.016 78.576 259.552 77.84 256.352 77.84H244.064V94.64ZM257.6 123.056C260.864 123.056 263.392 122.288 265.184 120.752C267.04 119.216 267.968 117.04 267.968 114.224C267.968 111.344 267.008 109.104 265.088 107.504C263.168 105.84 260.576 105.008 257.312 105.008H244.064V123.056H257.6ZM299.128 74.48C296.76 74.48 294.776 73.744 293.176 72.272C291.64 70.736 290.872 68.848 290.872 66.608C290.872 64.368 291.64 62.512 293.176 61.04C294.776 59.504 296.76 58.736 299.128 58.736C301.496 58.736 303.448 59.504 304.984 61.04C306.584 62.512 307.384 64.368 307.384 66.608C307.384 68.848 306.584 70.736 304.984 72.272C303.448 73.744 301.496 74.48 299.128 74.48ZM305.752 80.816V134H292.312V80.816H305.752ZM385.078 80.048C391.606 80.048 396.854 82.064 400.822 86.096C404.854 90.064 406.87 95.632 406.87 102.8V134H393.43V104.624C393.43 100.464 392.374 97.296 390.262 95.12C388.15 92.88 385.27 91.76 381.622 91.76C377.974 91.76 375.062 92.88 372.886 95.12C370.774 97.296 369.718 100.464 369.718 104.624V134H356.278V104.624C356.278 100.464 355.222 97.296 353.11 95.12C350.998 92.88 348.118 91.76 344.47 91.76C340.758 91.76 337.814 92.88 335.638 95.12C333.526 97.296 332.47 100.464 332.47 104.624V134H319.03V80.816H332.47V87.248C334.198 85.008 336.406 83.248 339.094 81.968C341.846 80.688 344.854 80.048 348.118 80.048C352.278 80.048 355.99 80.944 359.254 82.736C362.518 84.464 365.046 86.96 366.838 90.224C368.566 87.152 371.062 84.688 374.326 82.832C377.654 80.976 381.238 80.048 385.078 80.048ZM416.168 107.216C416.168 101.84 417.224 97.072 419.336 92.912C421.512 88.752 424.424 85.552 428.072 83.312C431.784 81.072 435.912 79.952 440.456 79.952C444.424 79.952 447.88 80.752 450.824 82.352C453.832 83.952 456.232 85.968 458.024 88.4V80.816H471.56V134H458.024V126.224C456.296 128.72 453.896 130.8 450.824 132.464C447.816 134.064 444.328 134.864 440.36 134.864C435.88 134.864 431.784 133.712 428.072 131.408C424.424 129.104 421.512 125.872 419.336 121.712C417.224 117.488 416.168 112.656 416.168 107.216ZM458.024 107.408C458.024 104.144 457.384 101.36 456.104 99.056C454.824 96.688 453.096 94.896 450.92 93.68C448.744 92.4 446.408 91.76 443.912 91.76C441.416 91.76 439.112 92.368 437 93.584C434.888 94.8 433.16 96.592 431.816 98.96C430.536 101.264 429.896 104.016 429.896 107.216C429.896 110.416 430.536 113.232 431.816 115.664C433.16 118.032 434.888 119.856 437 121.136C439.176 122.416 441.48 123.056 443.912 123.056C446.408 123.056 448.744 122.448 450.92 121.232C453.096 119.952 454.824 118.16 456.104 115.856C457.384 113.488 458.024 110.672 458.024 107.408ZM531.343 87.152C529.807 84.336 527.695 82.192 525.007 80.72C522.319 79.248 519.183 78.512 515.599 78.512C511.631 78.512 508.111 79.408 505.039 81.2C501.967 82.992 499.567 85.552 497.839 88.88C496.111 92.208 495.247 96.048 495.247 100.4C495.247 104.88 496.111 108.784 497.839 112.112C499.631 115.44 502.095 118 505.231 119.792C508.367 121.584 512.015 122.48 516.175 122.48C521.295 122.48 525.487 121.136 528.75 118.448C532.015 115.696 534.159 111.888 535.183 107.024H512.143V96.752H548.431V108.464C547.535 113.136 545.615 117.456 542.671 121.424C539.727 125.392 535.919 128.592 531.247 131.024C526.639 133.392 521.455 134.576 515.695 134.576C509.231 134.576 503.375 133.136 498.127 130.256C492.943 127.312 488.847 123.248 485.839 118.064C482.895 112.88 481.423 106.992 481.423 100.4C481.423 93.808 482.895 87.92 485.839 82.736C488.847 77.488 492.943 73.424 498.127 70.544C503.375 67.6 509.199 66.128 515.599 66.128C523.151 66.128 529.711 67.984 535.279 71.696C540.847 75.344 544.687 80.496 546.799 87.152H531.343ZM611.654 66.992L588.998 110.672V134H575.558V110.672L552.806 66.992H567.974L582.374 97.616L596.678 66.992H611.654ZM692.461 66.992V134H679.021V90.416L661.069 134H650.893L632.845 90.416V134H619.405V66.992H634.669L655.981 116.816L677.293 66.992H692.461Z" fill="#151515"/>
<defs>
<radialGradient id="paint0_radial_2330_46" cx="0" cy="0" r="1" gradientUnits="userSpaceOnUse" gradientTransform="translate(47.95 165.013) rotate(-78.382) scale(152.19 152.189)">
<stop offset="0.222" stop-color="#4E46E2"/>
<stop offset="0.578" stop-color="#625DF6"/>
<stop offset="0.955" stop-color="#E37DFF"/>
</radialGradient>
<radialGradient id="paint1_radial_2330_46" cx="0" cy="0" r="1" gradientUnits="userSpaceOnUse" gradientTransform="translate(22.725 110.787) rotate(-17.281) scale(61.4376 80.4211)">
<stop offset="0.566" stop-color="#251FBA"/>
<stop offset="1" stop-color="#5E51E4" stop-opacity="0"/>
</radialGradient>
<radialGradient id="paint2_radial_2330_46" cx="0" cy="0" r="1" gradientUnits="userSpaceOnUse" gradientTransform="translate(18.5125 69.0625) rotate(8.25943) scale(56.5146 57.7688)">
<stop offset="0.566" stop-color="#251FBA"/>
<stop offset="1" stop-color="#5E51E4" stop-opacity="0"/>
</radialGradient>
<radialGradient id="paint3_radial_2330_46" cx="0" cy="0" r="1" gradientUnits="userSpaceOnUse" gradientTransform="translate(100.276 82.1382) rotate(42.462) scale(118.238 160.599)">
<stop stop-color="#C354FF"/>
<stop offset="0.158" stop-color="#B339F0"/>
<stop offset="0.429" stop-color="#F24A9D"/>
<stop offset="0.749" stop-color="#FF835C"/>
<stop offset="1" stop-color="#FFC470"/>
</radialGradient>
<linearGradient id="paint4_linear_2330_46" x1="144.9" y1="137.887" x2="94.0375" y2="63.1375" gradientUnits="userSpaceOnUse">
<stop offset="0.195" stop-color="#6D37CD"/>
<stop offset="0.765" stop-color="#EA71EF"/>
</linearGradient>
<linearGradient id="paint5_linear_2330_46" x1="155.662" y1="155.475" x2="74.55" y2="42.0875" gradientUnits="userSpaceOnUse">
<stop offset="0.195" stop-color="#7631FF"/>
<stop offset="0.886" stop-color="#E63080"/>
</linearGradient>
<linearGradient id="paint6_linear_2330_46" x1="0.787499" y1="122.588" x2="50.625" y2="181.238" gradientUnits="userSpaceOnUse">
<stop stop-color="#0FAFFF"/>
<stop offset="1" stop-color="#2764E7"/>
</linearGradient>
<radialGradient id="paint7_radial_2330_46" cx="0" cy="0" r="1" gradientUnits="userSpaceOnUse" gradientTransform="translate(35.4125 68) rotate(80.269) scale(111.696 306.014)">
<stop offset="0.5" stop-color="#DD3CE2" stop-opacity="0"/>
<stop offset="1" stop-color="#DD3CE2"/>
</radialGradient>
<linearGradient id="paint8_linear_2330_46" x1="81.25" y1="126.35" x2="-6.25" y2="126.35" gradientUnits="userSpaceOnUse">
<stop offset="0.307" stop-color="#0D91E1"/>
<stop offset="0.761" stop-color="#52B471"/>
</linearGradient>
<radialGradient id="paint9_radial_2330_46" cx="0" cy="0" r="1" gradientUnits="userSpaceOnUse" gradientTransform="translate(22.975 75) rotate(-73.0638) scale(57.7449 101.986)">
<stop offset="0.169" stop-color="#02888D"/>
<stop offset="0.26" stop-color="#02888D" stop-opacity="0"/>
</radialGradient>
<radialGradient id="paint10_radial_2330_46" cx="0" cy="0" r="1" gradientUnits="userSpaceOnUse" gradientTransform="translate(48.1096 37.0095) rotate(106.553) scale(57.0721 57.1059)">
<stop stop-color="#FF9532"/>
<stop offset="0.251" stop-color="#FF835C"/>
<stop offset="1" stop-color="#F24A9D"/>
</radialGradient>
</defs>
</svg>
