<svg width="732" height="200" viewBox="0 0 732 200" fill="none" xmlns="http://www.w3.org/2000/svg">
<path d="M100 87.5C83.424 87.5 67.5269 94.0848 55.8058 105.806C44.0848 117.527 37.5 133.424 37.5 150C37.5 166.225 52.65 175 66.0625 175H133.938C147.35 175 162.5 166.225 162.5 150C162.5 133.424 155.915 117.527 144.194 105.806C132.473 94.0848 116.576 87.5 100 87.5Z" fill="url(#paint0_linear_2330_53)"/>
<path d="M106.25 48.4375C106.25 36.725 114.225 25 126.562 25C138.9 25 146.875 36.725 146.875 48.4375C146.875 60.15 138.9 71.875 126.562 71.875C114.225 71.875 106.25 60.15 106.25 48.4375ZM29.6875 53.125C17.35 53.125 9.375 64.85 9.375 76.5625C9.375 88.275 17.35 100 29.6875 100C42.025 100 50 88.275 50 76.5625C50 64.85 42.025 53.125 29.6875 53.125ZM170.312 53.125C157.975 53.125 150 64.85 150 76.5625C150 88.275 157.975 100 170.312 100C182.65 100 190.625 88.275 190.625 76.5625C190.625 64.85 182.65 53.125 170.312 53.125ZM73.4375 25C61.1 25 53.125 36.725 53.125 48.4375C53.125 60.15 61.1 71.875 73.4375 71.875C85.775 71.875 93.75 60.15 93.75 48.4375C93.75 36.725 85.775 25 73.4375 25Z" fill="url(#paint1_radial_2330_53)"/>
<path d="M262.76 134.672C258.088 134.672 253.864 133.872 250.088 132.272C246.376 130.672 243.432 128.368 241.256 125.36C239.08 122.352 237.96 118.8 237.896 114.704H252.296C252.488 117.456 253.448 119.632 255.176 121.232C256.968 122.832 259.4 123.632 262.472 123.632C265.608 123.632 268.072 122.896 269.864 121.424C271.656 119.888 272.552 117.904 272.552 115.472C272.552 113.488 271.944 111.856 270.728 110.576C269.512 109.296 267.976 108.304 266.12 107.6C264.328 106.832 261.832 106 258.632 105.104C254.28 103.824 250.728 102.576 247.976 101.36C245.288 100.08 242.952 98.192 240.968 95.696C239.048 93.136 238.088 89.744 238.088 85.52C238.088 81.552 239.08 78.096 241.064 75.152C243.048 72.208 245.832 69.968 249.416 68.432C253 66.832 257.096 66.032 261.704 66.032C268.616 66.032 274.216 67.728 278.504 71.12C282.856 74.448 285.256 79.12 285.704 85.136H270.92C270.792 82.832 269.8 80.944 267.944 79.472C266.152 77.936 263.752 77.168 260.744 77.168C258.12 77.168 256.008 77.84 254.408 79.184C252.872 80.528 252.104 82.48 252.104 85.04C252.104 86.832 252.68 88.336 253.832 89.552C255.048 90.704 256.52 91.664 258.248 92.432C260.04 93.136 262.536 93.968 265.736 94.928C270.088 96.208 273.64 97.488 276.392 98.768C279.144 100.048 281.512 101.968 283.496 104.528C285.48 107.088 286.472 110.448 286.472 114.608C286.472 118.192 285.544 121.52 283.688 124.592C281.832 127.664 279.112 130.128 275.528 131.984C271.944 133.776 267.688 134.672 262.76 134.672ZM348.332 80.816V134H334.796V127.28C333.068 129.584 330.796 131.408 327.98 132.752C325.228 134.032 322.22 134.672 318.956 134.672C314.796 134.672 311.116 133.808 307.916 132.08C304.716 130.288 302.188 127.696 300.332 124.304C298.54 120.848 297.644 116.752 297.644 112.016V80.816H311.084V110.096C311.084 114.32 312.14 117.584 314.252 119.888C316.364 122.128 319.244 123.248 322.892 123.248C326.604 123.248 329.516 122.128 331.628 119.888C333.74 117.584 334.796 114.32 334.796 110.096V80.816H348.332ZM391.065 80.048C397.401 80.048 402.521 82.064 406.425 86.096C410.329 90.064 412.281 95.632 412.281 102.8V134H398.841V104.624C398.841 100.4 397.785 97.168 395.673 94.928C393.561 92.624 390.681 91.472 387.033 91.472C383.321 91.472 380.377 92.624 378.201 94.928C376.089 97.168 375.033 100.4 375.033 104.624V134H361.593V80.816H375.033V87.44C376.825 85.136 379.097 83.344 381.849 82.064C384.665 80.72 387.737 80.048 391.065 80.048ZM445.414 134.864C441.062 134.864 437.158 134.096 433.702 132.56C430.246 130.96 427.494 128.816 425.446 126.128C423.462 123.44 422.374 120.464 422.182 117.2H435.718C435.974 119.248 436.966 120.944 438.694 122.288C440.486 123.632 442.694 124.304 445.318 124.304C447.878 124.304 449.862 123.792 451.27 122.768C452.742 121.744 453.478 120.432 453.478 118.832C453.478 117.104 452.582 115.824 450.79 114.992C449.062 114.096 446.278 113.136 442.438 112.112C438.47 111.152 435.206 110.16 432.646 109.136C430.15 108.112 427.974 106.544 426.118 104.432C424.326 102.32 423.43 99.472 423.43 95.888C423.43 92.944 424.262 90.256 425.926 87.824C427.654 85.392 430.086 83.472 433.222 82.064C436.422 80.656 440.166 79.952 444.454 79.952C450.79 79.952 455.846 81.552 459.622 84.752C463.398 87.888 465.478 92.144 465.862 97.52H452.998C452.806 95.408 451.91 93.744 450.31 92.528C448.774 91.248 446.694 90.608 444.07 90.608C441.638 90.608 439.75 91.056 438.406 91.952C437.126 92.848 436.486 94.096 436.486 95.696C436.486 97.488 437.382 98.864 439.174 99.824C440.966 100.72 443.75 101.648 447.526 102.608C451.366 103.568 454.534 104.56 457.03 105.584C459.526 106.608 461.67 108.208 463.462 110.384C465.318 112.496 466.278 115.312 466.342 118.832C466.342 121.904 465.478 124.656 463.75 127.088C462.086 129.52 459.654 131.44 456.454 132.848C453.318 134.192 449.638 134.864 445.414 134.864ZM526.814 106.256C526.814 108.176 526.686 109.904 526.43 111.44H487.55C487.87 115.28 489.214 118.288 491.582 120.464C493.95 122.64 496.862 123.728 500.318 123.728C505.31 123.728 508.862 121.584 510.974 117.296H525.47C523.934 122.416 520.99 126.64 516.638 129.968C512.286 133.232 506.942 134.864 500.606 134.864C495.486 134.864 490.878 133.744 486.782 131.504C482.75 129.2 479.582 125.968 477.278 121.808C475.038 117.648 473.918 112.848 473.918 107.408C473.918 101.904 475.038 97.072 477.278 92.912C479.518 88.752 482.654 85.552 486.686 83.312C490.718 81.072 495.358 79.952 500.606 79.952C505.662 79.952 510.174 81.04 514.142 83.216C518.174 85.392 521.278 88.496 523.454 92.528C525.694 96.496 526.814 101.072 526.814 106.256ZM512.894 102.416C512.83 98.96 511.582 96.208 509.15 94.16C506.718 92.048 503.742 90.992 500.222 90.992C496.894 90.992 494.078 92.016 491.774 94.064C489.534 96.048 488.158 98.832 487.646 102.416H512.894ZM552.272 91.856V117.584C552.272 119.376 552.688 120.688 553.52 121.52C554.416 122.288 555.888 122.672 557.936 122.672H564.176V134H555.728C544.4 134 538.736 128.496 538.736 117.488V91.856H532.4V80.816H538.736V67.664H552.272V80.816H564.176V91.856H552.272ZM634.035 66.992L609.459 134H593.139L568.563 66.992H582.963L601.395 120.272L619.731 66.992H634.035ZM691.533 106.256C691.533 108.176 691.405 109.904 691.149 111.44H652.269C652.589 115.28 653.933 118.288 656.301 120.464C658.669 122.64 661.581 123.728 665.037 123.728C670.029 123.728 673.581 121.584 675.693 117.296H690.189C688.653 122.416 685.709 126.64 681.357 129.968C677.005 133.232 671.661 134.864 665.325 134.864C660.205 134.864 655.597 133.744 651.501 131.504C647.469 129.2 644.301 125.968 641.997 121.808C639.757 117.648 638.637 112.848 638.637 107.408C638.637 101.904 639.757 97.072 641.997 92.912C644.237 88.752 647.373 85.552 651.405 83.312C655.437 81.072 660.077 79.952 665.325 79.952C670.381 79.952 674.893 81.04 678.861 83.216C682.893 85.392 685.997 88.496 688.173 92.528C690.413 96.496 691.533 101.072 691.533 106.256ZM677.613 102.416C677.549 98.96 676.301 96.208 673.869 94.16C671.437 92.048 668.461 90.992 664.941 90.992C661.613 90.992 658.797 92.016 656.493 94.064C654.253 96.048 652.877 98.832 652.365 102.416H677.613ZM716.991 91.856V117.584C716.991 119.376 717.407 120.688 718.239 121.52C719.135 122.288 720.607 122.672 722.655 122.672H728.895V134H720.447C709.119 134 703.455 128.496 703.455 117.488V91.856H697.119V80.816H703.455V67.664H716.991V80.816H728.895V91.856H716.991Z" fill="#151515"/>
<defs>
<linearGradient id="paint0_linear_2330_53" x1="67.225" y1="99.1375" x2="103.675" y2="182.287" gradientUnits="userSpaceOnUse">
<stop offset="0.125" stop-color="#FF921F"/>
<stop offset="1" stop-color="#EB4824"/>
</linearGradient>
<radialGradient id="paint1_radial_2330_53" cx="0" cy="0" r="1" gradientUnits="userSpaceOnUse" gradientTransform="translate(105.037 105.362) rotate(-90) scale(96.4286 145)">
<stop stop-color="#EB4824"/>
<stop offset="1" stop-color="#FF921F"/>
</radialGradient>
</defs>
</svg>
