<svg width="794" height="200" viewBox="0 0 794 200" fill="none" xmlns="http://www.w3.org/2000/svg">
<path d="M175 125L137.5 112.5L100 125L87.5 150L100 175H143.75C152.038 175 159.987 171.708 165.847 165.847C171.708 159.987 175 152.038 175 143.75V125Z" fill="url(#paint0_linear_2330_26)"/>
<path d="M100 25L87.5 75L100 125H175V56.25C175 47.962 171.708 40.0134 165.847 34.1529C159.987 28.2924 152.038 25 143.75 25H100Z" fill="url(#paint1_linear_2330_26)"/>
<path d="M100 175V75L62.5 62.5L25 75V143.75C25 152.038 28.2924 159.987 34.1529 165.847C40.0134 171.708 47.962 175 56.25 175H100Z" fill="url(#paint2_linear_2330_26)"/>
<path d="M100 25V75H25V56.25C25 47.962 28.2924 40.0134 34.1529 34.1529C40.0134 28.2924 47.962 25 56.25 25H100Z" fill="url(#paint3_linear_2330_26)"/>
<path d="M246.184 134L231.4 107.888H225.064V134H211.624V66.992H236.776C241.96 66.992 246.376 67.92 250.024 69.776C253.672 71.568 256.392 74.032 258.184 77.168C260.04 80.24 260.968 83.696 260.968 87.536C260.968 91.952 259.688 95.952 257.128 99.536C254.568 103.056 250.76 105.488 245.704 106.832L261.736 134H246.184ZM225.064 97.808H236.296C239.944 97.808 242.664 96.944 244.456 95.216C246.248 93.424 247.144 90.96 247.144 87.824C247.144 84.752 246.248 82.384 244.456 80.72C242.664 78.992 239.944 78.128 236.296 78.128H225.064V97.808ZM324.004 80.816L291.076 159.152H276.772L288.292 132.656L266.98 80.816H282.052L295.78 117.968L309.7 80.816H324.004ZM327.793 107.216C327.793 101.84 328.849 97.072 330.961 92.912C333.137 88.752 336.049 85.552 339.697 83.312C343.409 81.072 347.537 79.952 352.081 79.952C356.049 79.952 359.505 80.752 362.449 82.352C365.457 83.952 367.857 85.968 369.649 88.4V80.816H383.185V134H369.649V126.224C367.921 128.72 365.521 130.8 362.449 132.464C359.441 134.064 355.953 134.864 351.985 134.864C347.505 134.864 343.409 133.712 339.697 131.408C336.049 129.104 333.137 125.872 330.961 121.712C328.849 117.488 327.793 112.656 327.793 107.216ZM369.649 107.408C369.649 104.144 369.009 101.36 367.729 99.056C366.449 96.688 364.721 94.896 362.545 93.68C360.369 92.4 358.033 91.76 355.537 91.76C353.041 91.76 350.737 92.368 348.625 93.584C346.513 94.8 344.785 96.592 343.441 98.96C342.161 101.264 341.521 104.016 341.521 107.216C341.521 110.416 342.161 113.232 343.441 115.664C344.785 118.032 346.513 119.856 348.625 121.136C350.801 122.416 353.105 123.056 355.537 123.056C358.033 123.056 360.369 122.448 362.545 121.232C364.721 119.952 366.449 118.16 367.729 115.856C369.009 113.488 369.649 110.672 369.649 107.408ZM425.784 80.048C432.12 80.048 437.24 82.064 441.144 86.096C445.048 90.064 447 95.632 447 102.8V134H433.56V104.624C433.56 100.4 432.504 97.168 430.392 94.928C428.28 92.624 425.4 91.472 421.752 91.472C418.04 91.472 415.096 92.624 412.92 94.928C410.808 97.168 409.752 100.4 409.752 104.624V134H396.312V80.816H409.752V87.44C411.544 85.136 413.816 83.344 416.568 82.064C419.384 80.72 422.456 80.048 425.784 80.048ZM482.916 134.672C478.244 134.672 474.02 133.872 470.244 132.272C466.532 130.672 463.588 128.368 461.412 125.36C459.236 122.352 458.116 118.8 458.052 114.704H472.452C472.644 117.456 473.604 119.632 475.332 121.232C477.124 122.832 479.556 123.632 482.628 123.632C485.764 123.632 488.228 122.896 490.02 121.424C491.812 119.888 492.708 117.904 492.708 115.472C492.708 113.488 492.1 111.856 490.884 110.576C489.668 109.296 488.132 108.304 486.276 107.6C484.484 106.832 481.988 106 478.788 105.104C474.436 103.824 470.884 102.576 468.132 101.36C465.444 100.08 463.108 98.192 461.124 95.696C459.204 93.136 458.244 89.744 458.244 85.52C458.244 81.552 459.236 78.096 461.22 75.152C463.204 72.208 465.988 69.968 469.572 68.432C473.156 66.832 477.252 66.032 481.86 66.032C488.772 66.032 494.372 67.728 498.66 71.12C503.012 74.448 505.412 79.12 505.86 85.136H491.076C490.948 82.832 489.956 80.944 488.1 79.472C486.308 77.936 483.908 77.168 480.9 77.168C478.276 77.168 476.164 77.84 474.564 79.184C473.028 80.528 472.26 82.48 472.26 85.04C472.26 86.832 472.836 88.336 473.988 89.552C475.204 90.704 476.676 91.664 478.404 92.432C480.196 93.136 482.692 93.968 485.892 94.928C490.244 96.208 493.796 97.488 496.548 98.768C499.3 100.048 501.668 101.968 503.652 104.528C505.636 107.088 506.628 110.448 506.628 114.608C506.628 118.192 505.7 121.52 503.844 124.592C501.988 127.664 499.268 130.128 495.684 131.984C492.1 133.776 487.844 134.672 482.916 134.672ZM514.824 107.216C514.824 101.84 515.88 97.072 517.992 92.912C520.168 88.752 523.08 85.552 526.728 83.312C530.44 81.072 534.568 79.952 539.112 79.952C543.08 79.952 546.536 80.752 549.48 82.352C552.488 83.952 554.888 85.968 556.68 88.4V80.816H570.216V134H556.68V126.224C554.952 128.72 552.552 130.8 549.48 132.464C546.472 134.064 542.984 134.864 539.016 134.864C534.536 134.864 530.44 133.712 526.728 131.408C523.08 129.104 520.168 125.872 517.992 121.712C515.88 117.488 514.824 112.656 514.824 107.216ZM556.68 107.408C556.68 104.144 556.04 101.36 554.76 99.056C553.48 96.688 551.752 94.896 549.576 93.68C547.4 92.4 545.064 91.76 542.568 91.76C540.072 91.76 537.768 92.368 535.656 93.584C533.544 94.8 531.816 96.592 530.472 98.96C529.192 101.264 528.552 104.016 528.552 107.216C528.552 110.416 529.192 113.232 530.472 115.664C531.816 118.032 533.544 119.856 535.656 121.136C537.832 122.416 540.136 123.056 542.568 123.056C545.064 123.056 547.4 122.448 549.576 121.232C551.752 119.952 553.48 118.16 554.76 115.856C556.04 113.488 556.68 110.672 556.68 107.408ZM596.783 88.592C598.511 86.032 600.879 83.952 603.887 82.352C606.959 80.752 610.447 79.952 614.351 79.952C618.895 79.952 622.991 81.072 626.639 83.312C630.351 85.552 633.263 88.752 635.375 92.912C637.551 97.008 638.639 101.776 638.639 107.216C638.639 112.656 637.551 117.488 635.375 121.712C633.263 125.872 630.351 129.104 626.639 131.408C622.991 133.712 618.895 134.864 614.351 134.864C610.383 134.864 606.895 134.096 603.887 132.56C600.943 130.96 598.575 128.912 596.783 126.416V134H583.343V62.96H596.783V88.592ZM624.911 107.216C624.911 104.016 624.239 101.264 622.895 98.96C621.615 96.592 619.887 94.8 617.711 93.584C615.599 92.368 613.295 91.76 610.799 91.76C608.367 91.76 606.063 92.4 603.887 93.68C601.775 94.896 600.047 96.688 598.703 99.056C597.423 101.424 596.783 104.208 596.783 107.408C596.783 110.608 597.423 113.392 598.703 115.76C600.047 118.128 601.775 119.952 603.887 121.232C606.063 122.448 608.367 123.056 610.799 123.056C613.295 123.056 615.599 122.416 617.711 121.136C619.887 119.856 621.615 118.032 622.895 115.664C624.239 113.296 624.911 110.48 624.911 107.216ZM661.845 62.96V134H648.405V62.96H661.845ZM698.74 134.864C693.62 134.864 689.012 133.744 684.916 131.504C680.82 129.2 677.588 125.968 675.22 121.808C672.916 117.648 671.764 112.848 671.764 107.408C671.764 101.968 672.948 97.168 675.316 93.008C677.748 88.848 681.044 85.648 685.204 83.408C689.364 81.104 694.004 79.952 699.124 79.952C704.244 79.952 708.884 81.104 713.044 83.408C717.204 85.648 720.468 88.848 722.836 93.008C725.268 97.168 726.484 101.968 726.484 107.408C726.484 112.848 725.236 117.648 722.74 121.808C720.308 125.968 716.98 129.2 712.756 131.504C708.596 133.744 703.924 134.864 698.74 134.864ZM698.74 123.152C701.172 123.152 703.444 122.576 705.556 121.424C707.732 120.208 709.46 118.416 710.74 116.048C712.02 113.68 712.66 110.8 712.66 107.408C712.66 102.352 711.316 98.48 708.628 95.792C706.004 93.04 702.772 91.664 698.932 91.664C695.092 91.664 691.86 93.04 689.236 95.792C686.676 98.48 685.396 102.352 685.396 107.408C685.396 112.464 686.644 116.368 689.14 119.12C691.7 121.808 694.9 123.152 698.74 123.152ZM765.815 80.048C772.151 80.048 777.271 82.064 781.175 86.096C785.079 90.064 787.031 95.632 787.031 102.8V134H773.591V104.624C773.591 100.4 772.535 97.168 770.423 94.928C768.311 92.624 765.431 91.472 761.783 91.472C758.071 91.472 755.127 92.624 752.951 94.928C750.839 97.168 749.783 100.4 749.783 104.624V134H736.343V80.816H749.783V87.44C751.575 85.136 753.847 83.344 756.599 82.064C759.415 80.72 762.487 80.048 765.815 80.048Z" fill="#151515"/>
<defs>
<linearGradient id="paint0_linear_2330_26" x1="58.3375" y1="89.775" x2="104.087" y2="197.212" gradientUnits="userSpaceOnUse">
<stop stop-color="#B0F098"/>
<stop offset="1" stop-color="#52D17C"/>
</linearGradient>
<linearGradient id="paint1_linear_2330_26" x1="105" y1="36.1125" x2="163.462" y2="113.788" gradientUnits="userSpaceOnUse">
<stop stop-color="#52D17C"/>
<stop offset="1" stop-color="#309C61"/>
</linearGradient>
<linearGradient id="paint2_linear_2330_26" x1="35.7125" y1="80.2625" x2="100.125" y2="139.675" gradientUnits="userSpaceOnUse">
<stop stop-color="#42B870"/>
<stop offset="1" stop-color="#1A7F7C"/>
</linearGradient>
<linearGradient id="paint3_linear_2330_26" x1="35.7125" y1="35" x2="55.4125" y2="86.0125" gradientUnits="userSpaceOnUse">
<stop stop-color="#B0F098"/>
<stop offset="1" stop-color="#64DE89"/>
</linearGradient>
</defs>
</svg>
