<svg width="811" height="200" viewBox="0 0 811 200" fill="none" xmlns="http://www.w3.org/2000/svg">
<path d="M99.9999 35.7142C87.9551 35.7136 76.3148 40.061 67.2193 47.9571C58.1237 55.8532 52.1842 66.7673 50.4928 78.6928C40.373 79.4903 30.9548 84.174 24.2121 91.7623C17.4693 99.3506 13.9257 109.254 14.3237 119.398C14.7218 129.541 19.0306 139.136 26.3473 146.173C33.6639 153.21 43.4202 157.141 53.5713 157.143H146.428C156.58 157.141 166.336 153.21 173.653 146.173C180.969 139.136 185.278 129.541 185.676 119.398C186.074 109.254 182.53 99.3506 175.788 91.7623C169.045 84.174 159.627 79.4903 149.507 78.6928C147.816 66.7673 141.876 55.8532 132.781 47.9571C123.685 40.061 112.045 35.7136 99.9999 35.7142Z" fill="url(#paint0_linear_2330_29)"/>
<path d="M92.8571 117.857C92.8571 128.276 88.7181 138.269 81.3506 145.636C73.9831 153.004 63.9906 157.143 53.5714 157.143C43.1521 157.143 33.1597 153.004 25.7922 145.636C18.4247 138.269 14.2856 128.276 14.2856 117.857C14.2856 107.438 18.4247 97.4454 25.7922 90.0779C33.1597 82.7104 43.1521 78.5714 53.5714 78.5714C63.9906 78.5714 73.9831 82.7104 81.3506 90.0779C88.7181 97.4454 92.8571 107.438 92.8571 117.857Z" fill="url(#paint1_linear_2330_29)" fill-opacity="0.3"/>
<path d="M99.9998 135.714C109.589 135.714 118.976 132.956 127.041 127.769C135.107 122.583 141.511 115.186 145.49 106.462C149.468 97.7369 150.855 88.0521 149.483 78.5615C148.111 69.071 144.039 60.1751 137.753 52.9342C131.466 45.6934 123.23 40.413 114.026 37.7226C104.822 35.0321 95.0382 35.0451 85.8414 37.7599C76.6446 40.4748 68.4224 45.777 62.155 53.0345C55.8876 60.292 51.8393 69.1987 50.4927 78.6928C57.3466 78.1512 64.2226 79.4177 70.4337 82.3658C76.6447 85.314 81.9734 89.8405 85.8871 95.4931C89.8008 101.146 92.1626 107.726 92.7364 114.578C93.3102 121.429 92.0759 128.311 89.157 134.536C92.6427 135.307 96.2784 135.714 99.9998 135.714Z" fill="url(#paint2_linear_2330_29)" fill-opacity="0.3"/>
<path d="M99.9998 135.714C109.589 135.714 118.976 132.956 127.041 127.769C135.107 122.583 141.511 115.186 145.49 106.462C149.468 97.7369 150.855 88.0521 149.483 78.5615C148.111 69.071 144.039 60.1751 137.753 52.9342C131.466 45.6934 123.23 40.413 114.026 37.7226C104.822 35.0321 95.0382 35.0451 85.8414 37.7599C76.6446 40.4748 68.4224 45.777 62.155 53.0345C55.8876 60.292 51.8393 69.1987 50.4927 78.6928C57.3466 78.1512 64.2226 79.4177 70.4337 82.3658C76.6447 85.314 81.9734 89.8405 85.8871 95.4931C89.8008 101.146 92.1626 107.726 92.7364 114.578C93.3102 121.429 92.0759 128.311 89.157 134.536C92.6427 135.307 96.2784 135.714 99.9998 135.714Z" fill="url(#paint3_radial_2330_29)"/>
<path d="M99.9999 35.7142C87.9551 35.7136 76.3148 40.061 67.2193 47.9571C58.1237 55.8532 52.1842 66.7673 50.4928 78.6928C40.373 79.4903 30.9548 84.174 24.2121 91.7623C17.4693 99.3506 13.9257 109.254 14.3237 119.398C14.7218 129.541 19.0306 139.136 26.3473 146.173C33.6639 153.21 43.4202 157.141 53.5713 157.143H146.428C156.58 157.141 166.336 153.21 173.653 146.173C180.969 139.136 185.278 129.541 185.676 119.398C186.074 109.254 182.53 99.3506 175.788 91.7623C169.045 84.174 159.627 79.4903 149.507 78.6928C147.816 66.7673 141.876 55.8532 132.781 47.9571C123.685 40.061 112.045 35.7136 99.9999 35.7142Z" fill="url(#paint4_radial_2330_29)" fill-opacity="0.5"/>
<path d="M254.76 134.672C250.088 134.672 245.864 133.872 242.088 132.272C238.376 130.672 235.432 128.368 233.256 125.36C231.08 122.352 229.96 118.8 229.896 114.704H244.296C244.488 117.456 245.448 119.632 247.176 121.232C248.968 122.832 251.4 123.632 254.472 123.632C257.608 123.632 260.072 122.896 261.864 121.424C263.656 119.888 264.552 117.904 264.552 115.472C264.552 113.488 263.944 111.856 262.728 110.576C261.512 109.296 259.976 108.304 258.12 107.6C256.328 106.832 253.832 106 250.632 105.104C246.28 103.824 242.728 102.576 239.976 101.36C237.288 100.08 234.952 98.192 232.968 95.696C231.048 93.136 230.088 89.744 230.088 85.52C230.088 81.552 231.08 78.096 233.064 75.152C235.048 72.208 237.832 69.968 241.416 68.432C245 66.832 249.096 66.032 253.704 66.032C260.616 66.032 266.216 67.728 270.504 71.12C274.856 74.448 277.256 79.12 277.704 85.136H262.92C262.792 82.832 261.8 80.944 259.944 79.472C258.152 77.936 255.752 77.168 252.744 77.168C250.12 77.168 248.008 77.84 246.408 79.184C244.872 80.528 244.104 82.48 244.104 85.04C244.104 86.832 244.68 88.336 245.832 89.552C247.048 90.704 248.52 91.664 250.248 92.432C252.04 93.136 254.536 93.968 257.736 94.928C262.088 96.208 265.64 97.488 268.392 98.768C271.144 100.048 273.512 101.968 275.496 104.528C277.48 107.088 278.472 110.448 278.472 114.608C278.472 118.192 277.544 121.52 275.688 124.592C273.832 127.664 271.112 130.128 267.528 131.984C263.944 133.776 259.688 134.672 254.76 134.672ZM313.74 134.864C308.62 134.864 304.012 133.744 299.916 131.504C295.82 129.2 292.588 125.968 290.22 121.808C287.916 117.648 286.764 112.848 286.764 107.408C286.764 101.968 287.948 97.168 290.316 93.008C292.748 88.848 296.044 85.648 300.204 83.408C304.364 81.104 309.004 79.952 314.124 79.952C319.244 79.952 323.884 81.104 328.044 83.408C332.204 85.648 335.468 88.848 337.836 93.008C340.268 97.168 341.484 101.968 341.484 107.408C341.484 112.848 340.236 117.648 337.74 121.808C335.308 125.968 331.98 129.2 327.756 131.504C323.596 133.744 318.924 134.864 313.74 134.864ZM313.74 123.152C316.172 123.152 318.444 122.576 320.556 121.424C322.732 120.208 324.46 118.416 325.74 116.048C327.02 113.68 327.66 110.8 327.66 107.408C327.66 102.352 326.316 98.48 323.628 95.792C321.004 93.04 317.772 91.664 313.932 91.664C310.092 91.664 306.86 93.04 304.236 95.792C301.676 98.48 300.396 102.352 300.396 107.408C300.396 112.464 301.644 116.368 304.14 119.12C306.7 121.808 309.9 123.152 313.74 123.152ZM372.175 79.952C376.143 79.952 379.631 80.752 382.639 82.352C385.647 83.888 388.015 85.904 389.743 88.4V80.816H403.279V134.384C403.279 139.312 402.287 143.696 400.303 147.536C398.319 151.44 395.343 154.512 391.375 156.752C387.407 159.056 382.607 160.208 376.975 160.208C369.423 160.208 363.215 158.448 358.351 154.928C353.551 151.408 350.831 146.608 350.191 140.528H363.535C364.239 142.96 365.743 144.88 368.047 146.288C370.415 147.76 373.263 148.496 376.591 148.496C380.495 148.496 383.663 147.312 386.095 144.944C388.527 142.64 389.743 139.12 389.743 134.384V126.128C388.015 128.624 385.615 130.704 382.543 132.368C379.535 134.032 376.079 134.864 372.175 134.864C367.695 134.864 363.599 133.712 359.887 131.408C356.175 129.104 353.231 125.872 351.055 121.712C348.943 117.488 347.887 112.656 347.887 107.216C347.887 101.84 348.943 97.072 351.055 92.912C353.231 88.752 356.143 85.552 359.791 83.312C363.503 81.072 367.631 79.952 372.175 79.952ZM389.743 107.408C389.743 104.144 389.103 101.36 387.823 99.056C386.543 96.688 384.815 94.896 382.639 93.68C380.463 92.4 378.127 91.76 375.631 91.76C373.135 91.76 370.831 92.368 368.719 93.584C366.607 94.8 364.879 96.592 363.535 98.96C362.255 101.264 361.615 104.016 361.615 107.216C361.615 110.416 362.255 113.232 363.535 115.664C364.879 118.032 366.607 119.856 368.719 121.136C370.895 122.416 373.199 123.056 375.631 123.056C378.127 123.056 380.463 122.448 382.639 121.232C384.815 119.952 386.543 118.16 387.823 115.856C389.103 113.488 389.743 110.672 389.743 107.408ZM466.613 80.816V134H453.077V127.28C451.349 129.584 449.077 131.408 446.261 132.752C443.509 134.032 440.501 134.672 437.237 134.672C433.077 134.672 429.397 133.808 426.197 132.08C422.997 130.288 420.469 127.696 418.613 124.304C416.821 120.848 415.925 116.752 415.925 112.016V80.816H429.365V110.096C429.365 114.32 430.421 117.584 432.533 119.888C434.645 122.128 437.525 123.248 441.173 123.248C444.885 123.248 447.797 122.128 449.909 119.888C452.021 117.584 453.077 114.32 453.077 110.096V80.816H466.613ZM509.346 80.048C515.682 80.048 520.802 82.064 524.706 86.096C528.61 90.064 530.562 95.632 530.562 102.8V134H517.122V104.624C517.122 100.4 516.066 97.168 513.954 94.928C511.842 92.624 508.962 91.472 505.314 91.472C501.602 91.472 498.658 92.624 496.482 94.928C494.37 97.168 493.314 100.4 493.314 104.624V134H479.874V80.816H493.314V87.44C495.106 85.136 497.378 83.344 500.13 82.064C502.946 80.72 506.018 80.048 509.346 80.048ZM539.887 107.408C539.887 101.904 541.007 97.104 543.247 93.008C545.487 88.848 548.591 85.648 552.559 83.408C556.527 81.104 561.071 79.952 566.191 79.952C572.783 79.952 578.223 81.616 582.511 84.944C586.863 88.208 589.775 92.816 591.247 98.768H576.751C575.983 96.464 574.671 94.672 572.815 93.392C571.023 92.048 568.783 91.376 566.095 91.376C562.255 91.376 559.215 92.784 556.975 95.6C554.735 98.352 553.615 102.288 553.615 107.408C553.615 112.464 554.735 116.4 556.975 119.216C559.215 121.968 562.255 123.344 566.095 123.344C571.535 123.344 575.087 120.912 576.751 116.048H591.247C589.775 121.808 586.863 126.384 582.511 129.776C578.159 133.168 572.719 134.864 566.191 134.864C561.071 134.864 556.527 133.744 552.559 131.504C548.591 129.2 545.487 126 543.247 121.904C541.007 117.744 539.887 112.912 539.887 107.408ZM614.533 62.96V134H601.093V62.96H614.533ZM651.428 134.864C646.308 134.864 641.7 133.744 637.604 131.504C633.508 129.2 630.276 125.968 627.908 121.808C625.604 117.648 624.452 112.848 624.452 107.408C624.452 101.968 625.636 97.168 628.004 93.008C630.436 88.848 633.732 85.648 637.892 83.408C642.052 81.104 646.692 79.952 651.812 79.952C656.932 79.952 661.572 81.104 665.732 83.408C669.892 85.648 673.156 88.848 675.524 93.008C677.956 97.168 679.172 101.968 679.172 107.408C679.172 112.848 677.924 117.648 675.427 121.808C672.996 125.968 669.668 129.2 665.444 131.504C661.284 133.744 656.612 134.864 651.428 134.864ZM651.428 123.152C653.86 123.152 656.132 122.576 658.244 121.424C660.42 120.208 662.148 118.416 663.428 116.048C664.708 113.68 665.348 110.8 665.348 107.408C665.348 102.352 664.004 98.48 661.316 95.792C658.692 93.04 655.46 91.664 651.62 91.664C647.78 91.664 644.548 93.04 641.924 95.792C639.364 98.48 638.084 102.352 638.084 107.408C638.084 112.464 639.332 116.368 641.828 119.12C644.388 121.808 647.588 123.152 651.428 123.152ZM739.238 80.816V134H725.702V127.28C723.974 129.584 721.702 131.408 718.886 132.752C716.134 134.032 713.126 134.672 709.862 134.672C705.702 134.672 702.022 133.808 698.822 132.08C695.622 130.288 693.094 127.696 691.238 124.304C689.446 120.848 688.55 116.752 688.55 112.016V80.816H701.99V110.096C701.99 114.32 703.046 117.584 705.158 119.888C707.27 122.128 710.15 123.248 713.798 123.248C717.51 123.248 720.422 122.128 722.534 119.888C724.646 117.584 725.702 114.32 725.702 110.096V80.816H739.238ZM749.043 107.216C749.043 101.84 750.099 97.072 752.211 92.912C754.387 88.752 757.331 85.552 761.043 83.312C764.755 81.072 768.883 79.952 773.427 79.952C776.883 79.952 780.179 80.72 783.315 82.256C786.451 83.728 788.947 85.712 790.803 88.208V62.96H804.435V134H790.803V126.128C789.139 128.752 786.803 130.864 783.795 132.464C780.787 134.064 777.299 134.864 773.331 134.864C768.851 134.864 764.755 133.712 761.043 131.408C757.331 129.104 754.387 125.872 752.211 121.712C750.099 117.488 749.043 112.656 749.043 107.216ZM790.899 107.408C790.899 104.144 790.259 101.36 788.979 99.056C787.699 96.688 785.971 94.896 783.795 93.68C781.619 92.4 779.283 91.76 776.787 91.76C774.291 91.76 771.987 92.368 769.875 93.584C767.763 94.8 766.035 96.592 764.691 98.96C763.411 101.264 762.771 104.016 762.771 107.216C762.771 110.416 763.411 113.232 764.691 115.664C766.035 118.032 767.763 119.856 769.875 121.136C772.051 122.416 774.355 123.056 776.787 123.056C779.283 123.056 781.619 122.448 783.795 121.232C785.971 119.952 787.699 118.16 788.979 115.856C790.259 113.488 790.899 110.672 790.899 107.408Z" fill="#151515"/>
<defs>
<linearGradient id="paint0_linear_2330_29" x1="20.4071" y1="58.4857" x2="98.4713" y2="172.986" gradientUnits="userSpaceOnUse">
<stop stop-color="#0FAFFF"/>
<stop offset="1" stop-color="#367AF2"/>
</linearGradient>
<linearGradient id="paint1_linear_2330_29" x1="14.2856" y1="92.0286" x2="67.2499" y2="138.914" gradientUnits="userSpaceOnUse">
<stop stop-color="white"/>
<stop offset="1" stop-color="#FCFCFC" stop-opacity="0"/>
</linearGradient>
<linearGradient id="paint2_linear_2330_29" x1="67.7427" y1="41.3357" x2="80.9855" y2="110.279" gradientUnits="userSpaceOnUse">
<stop stop-color="white"/>
<stop offset="1" stop-color="#FCFCFC" stop-opacity="0"/>
</linearGradient>
<radialGradient id="paint3_radial_2330_29" cx="0" cy="0" r="1" gradientUnits="userSpaceOnUse" gradientTransform="translate(54.3855 117.586) rotate(-22.9494) scale(60.9103 54.4928)">
<stop offset="0.412" stop-color="#2C87F5"/>
<stop offset="1" stop-color="#2C87F5" stop-opacity="0"/>
</radialGradient>
<radialGradient id="paint4_radial_2330_29" cx="0" cy="0" r="1" gradientUnits="userSpaceOnUse" gradientTransform="translate(92.8571 28.1285) rotate(63.8444) scale(149.886 1074.31)">
<stop offset="0.5" stop-color="#DD3CE2" stop-opacity="0"/>
<stop offset="1" stop-color="#DD3CE2"/>
</radialGradient>
</defs>
</svg>
