<svg width="853" height="200" viewBox="0 0 853 200" fill="none" xmlns="http://www.w3.org/2000/svg">
<path d="M125.475 153.3C130.275 155.112 136.262 156.25 143.75 156.25C151.225 156.25 157.212 155.125 162 153.313C181.225 146.038 181.225 127.813 181.225 127.813C181.225 119.35 174.362 112.5 165.912 112.5H121.563C113.1 112.5 106.25 119.35 106.25 127.813C106.25 127.813 106.25 146.025 125.475 153.313" fill="url(#paint0_linear_2330_11)"/>
<path d="M125.475 153.3C130.275 155.112 136.262 156.25 143.75 156.25C151.225 156.25 157.212 155.125 162 153.313C181.225 146.038 181.225 127.813 181.225 127.813C181.225 119.35 174.362 112.5 165.912 112.5H121.563C113.1 112.5 106.25 119.35 106.25 127.813C106.25 127.813 106.25 146.025 125.475 153.313" fill="url(#paint1_radial_2330_11)" fill-opacity="0.5"/>
<path d="M118.75 131.25C118.75 126.277 116.775 121.508 113.258 117.992C109.742 114.475 104.973 112.5 100 112.5H37.5C32.5272 112.5 27.7581 114.475 24.2417 117.992C20.7254 121.508 18.75 126.277 18.75 131.25V132.187C18.75 132.187 18.75 168.75 68.75 168.75C116.4 168.75 118.638 135.55 118.75 132.425V131.25Z" fill="url(#paint2_linear_2330_11)"/>
<path d="M118.75 131.25C118.75 126.277 116.775 121.508 113.258 117.992C109.742 114.475 104.973 112.5 100 112.5H37.5C32.5272 112.5 27.7581 114.475 24.2417 117.992C20.7254 121.508 18.75 126.277 18.75 131.25V132.187C18.75 132.187 18.75 168.75 68.75 168.75C116.4 168.75 118.638 135.55 118.75 132.425V131.25Z" fill="url(#paint3_linear_2330_11)"/>
<path d="M143.75 100C150.38 100 156.739 97.3661 161.428 92.6777C166.116 87.9893 168.75 81.6304 168.75 75C168.75 68.3696 166.116 62.0107 161.428 57.3223C156.739 52.6339 150.38 50 143.75 50C137.12 50 130.761 52.6339 126.072 57.3223C121.384 62.0107 118.75 68.3696 118.75 75C118.75 81.6304 121.384 87.9893 126.072 92.6777C130.761 97.3661 137.12 100 143.75 100Z" fill="url(#paint4_linear_2330_11)"/>
<path d="M100 68.75C100 77.038 96.7076 84.9866 90.8471 90.8471C84.9866 96.7076 77.038 100 68.75 100C60.462 100 52.5134 96.7076 46.6529 90.8471C40.7924 84.9866 37.5 77.038 37.5 68.75C37.5 60.462 40.7924 52.5134 46.6529 46.6529C52.5134 40.7924 60.462 37.5 68.75 37.5C77.038 37.5 84.9866 40.7924 90.8471 46.6529C96.7076 52.5134 100 60.462 100 68.75Z" fill="url(#paint5_linear_2330_11)"/>
<path d="M274.64 99.632C278.416 100.336 281.52 102.224 283.952 105.296C286.384 108.368 287.6 111.888 287.6 115.856C287.6 119.44 286.704 122.608 284.912 125.36C283.184 128.048 280.656 130.16 277.328 131.696C274 133.232 270.064 134 265.52 134H236.624V66.992H264.272C268.816 66.992 272.72 67.728 275.984 69.2C279.312 70.672 281.808 72.72 283.472 75.344C285.2 77.968 286.064 80.944 286.064 84.272C286.064 88.176 285.008 91.44 282.896 94.064C280.848 96.688 278.096 98.544 274.64 99.632ZM250.064 94.64H262.352C265.552 94.64 268.016 93.936 269.744 92.528C271.472 91.056 272.336 88.976 272.336 86.288C272.336 83.6 271.472 81.52 269.744 80.048C268.016 78.576 265.552 77.84 262.352 77.84H250.064V94.64ZM263.6 123.056C266.864 123.056 269.392 122.288 271.184 120.752C273.04 119.216 273.968 117.04 273.968 114.224C273.968 111.344 273.008 109.104 271.088 107.504C269.168 105.84 266.576 105.008 263.312 105.008H250.064V123.056H263.6ZM294.855 107.216C294.855 101.84 295.911 97.072 298.023 92.912C300.2 88.752 303.112 85.552 306.76 83.312C310.472 81.072 314.6 79.952 319.144 79.952C323.112 79.952 326.568 80.752 329.512 82.352C332.52 83.952 334.92 85.968 336.712 88.4V80.816H350.248V134H336.712V126.224C334.984 128.72 332.584 130.8 329.512 132.464C326.504 134.064 323.016 134.864 319.048 134.864C314.568 134.864 310.472 133.712 306.76 131.408C303.112 129.104 300.2 125.872 298.023 121.712C295.911 117.488 294.855 112.656 294.855 107.216ZM336.712 107.408C336.712 104.144 336.072 101.36 334.792 99.056C333.512 96.688 331.784 94.896 329.608 93.68C327.432 92.4 325.096 91.76 322.6 91.76C320.104 91.76 317.8 92.368 315.688 93.584C313.576 94.8 311.848 96.592 310.504 98.96C309.224 101.264 308.584 104.016 308.584 107.216C308.584 110.416 309.224 113.232 310.504 115.664C311.848 118.032 313.576 119.856 315.688 121.136C317.864 122.416 320.168 123.056 322.6 123.056C325.096 123.056 327.432 122.448 329.608 121.232C331.784 119.952 333.512 118.16 334.792 115.856C336.072 113.488 336.712 110.672 336.712 107.408ZM384.206 79.952C388.174 79.952 391.662 80.752 394.67 82.352C397.678 83.888 400.046 85.904 401.774 88.4V80.816H415.31V134.384C415.31 139.312 414.318 143.696 412.334 147.536C410.35 151.44 407.374 154.512 403.406 156.752C399.438 159.056 394.638 160.208 389.006 160.208C381.454 160.208 375.246 158.448 370.382 154.928C365.582 151.408 362.862 146.608 362.222 140.528H375.566C376.27 142.96 377.774 144.88 380.078 146.288C382.446 147.76 385.294 148.496 388.622 148.496C392.526 148.496 395.694 147.312 398.126 144.944C400.558 142.64 401.774 139.12 401.774 134.384V126.128C400.046 128.624 397.646 130.704 394.574 132.368C391.566 134.032 388.11 134.864 384.206 134.864C379.726 134.864 375.63 133.712 371.918 131.408C368.206 129.104 365.262 125.872 363.086 121.712C360.974 117.488 359.918 112.656 359.918 107.216C359.918 101.84 360.974 97.072 363.086 92.912C365.262 88.752 368.174 85.552 371.822 83.312C375.534 81.072 379.662 79.952 384.206 79.952ZM401.774 107.408C401.774 104.144 401.134 101.36 399.854 99.056C398.574 96.688 396.846 94.896 394.67 93.68C392.494 92.4 390.158 91.76 387.662 91.76C385.166 91.76 382.862 92.368 380.75 93.584C378.638 94.8 376.91 96.592 375.566 98.96C374.286 101.264 373.646 104.016 373.646 107.216C373.646 110.416 374.286 113.232 375.566 115.664C376.91 118.032 378.638 119.856 380.75 121.136C382.926 122.416 385.23 123.056 387.662 123.056C390.158 123.056 392.494 122.448 394.67 121.232C396.846 119.952 398.574 118.16 399.854 115.856C401.134 113.488 401.774 110.672 401.774 107.408ZM478.645 80.816V134H465.109V127.28C463.381 129.584 461.109 131.408 458.293 132.752C455.541 134.032 452.533 134.672 449.269 134.672C445.109 134.672 441.429 133.808 438.229 132.08C435.029 130.288 432.501 127.696 430.645 124.304C428.853 120.848 427.957 116.752 427.957 112.016V80.816H441.397V110.096C441.397 114.32 442.453 117.584 444.565 119.888C446.677 122.128 449.557 123.248 453.205 123.248C456.917 123.248 459.829 122.128 461.941 119.888C464.053 117.584 465.109 114.32 465.109 110.096V80.816H478.645ZM512.257 134.864C507.905 134.864 504.001 134.096 500.545 132.56C497.089 130.96 494.337 128.816 492.289 126.128C490.305 123.44 489.217 120.464 489.025 117.2H502.561C502.817 119.248 503.809 120.944 505.537 122.288C507.329 123.632 509.537 124.304 512.161 124.304C514.721 124.304 516.705 123.792 518.113 122.768C519.585 121.744 520.321 120.432 520.321 118.832C520.321 117.104 519.425 115.824 517.633 114.992C515.905 114.096 513.121 113.136 509.281 112.112C505.313 111.152 502.049 110.16 499.489 109.136C496.993 108.112 494.817 106.544 492.961 104.432C491.169 102.32 490.273 99.472 490.273 95.888C490.273 92.944 491.105 90.256 492.769 87.824C494.497 85.392 496.929 83.472 500.065 82.064C503.265 80.656 507.009 79.952 511.297 79.952C517.633 79.952 522.689 81.552 526.465 84.752C530.241 87.888 532.321 92.144 532.705 97.52H519.841C519.649 95.408 518.753 93.744 517.153 92.528C515.617 91.248 513.537 90.608 510.913 90.608C508.481 90.608 506.593 91.056 505.249 91.952C503.969 92.848 503.329 94.096 503.329 95.696C503.329 97.488 504.225 98.864 506.017 99.824C507.809 100.72 510.593 101.648 514.369 102.608C518.209 103.568 521.377 104.56 523.873 105.584C526.369 106.608 528.513 108.208 530.305 110.384C532.161 112.496 533.121 115.312 533.185 118.832C533.185 121.904 532.321 124.656 530.593 127.088C528.929 129.52 526.497 131.44 523.297 132.848C520.161 134.192 516.481 134.864 512.257 134.864ZM582.042 134L557.658 104.144V134H544.218V66.992H557.658V97.04L582.042 66.992H598.266L570.618 100.208L599.034 134H582.042ZM631.49 134.864C626.37 134.864 621.762 133.744 617.666 131.504C613.57 129.2 610.338 125.968 607.97 121.808C605.666 117.648 604.514 112.848 604.514 107.408C604.514 101.968 605.698 97.168 608.066 93.008C610.498 88.848 613.794 85.648 617.954 83.408C622.114 81.104 626.754 79.952 631.874 79.952C636.994 79.952 641.634 81.104 645.794 83.408C649.954 85.648 653.218 88.848 655.586 93.008C658.018 97.168 659.234 101.968 659.234 107.408C659.234 112.848 657.986 117.648 655.49 121.808C653.058 125.968 649.73 129.2 645.506 131.504C641.346 133.744 636.674 134.864 631.49 134.864ZM631.49 123.152C633.922 123.152 636.194 122.576 638.306 121.424C640.482 120.208 642.21 118.416 643.49 116.048C644.77 113.68 645.41 110.8 645.41 107.408C645.41 102.352 644.066 98.48 641.378 95.792C638.754 93.04 635.522 91.664 631.682 91.664C627.842 91.664 624.61 93.04 621.986 95.792C619.426 98.48 618.146 102.352 618.146 107.408C618.146 112.464 619.394 116.368 621.89 119.12C624.45 121.808 627.65 123.152 631.49 123.152ZM698.565 80.048C704.901 80.048 710.021 82.064 713.925 86.096C717.829 90.064 719.781 95.632 719.781 102.8V134H706.341V104.624C706.341 100.4 705.285 97.168 703.173 94.928C701.061 92.624 698.181 91.472 694.533 91.472C690.821 91.472 687.877 92.624 685.701 94.928C683.589 97.168 682.533 100.4 682.533 104.624V134H669.093V80.816H682.533V87.44C684.325 85.136 686.597 83.344 689.349 82.064C692.165 80.72 695.237 80.048 698.565 80.048ZM753.394 79.952C757.362 79.952 760.85 80.752 763.858 82.352C766.866 83.888 769.234 85.904 770.962 88.4V80.816H784.498V134.384C784.498 139.312 783.506 143.696 781.522 147.536C779.538 151.44 776.562 154.512 772.594 156.752C768.626 159.056 763.826 160.208 758.194 160.208C750.642 160.208 744.434 158.448 739.57 154.928C734.77 151.408 732.05 146.608 731.41 140.528H744.754C745.458 142.96 746.962 144.88 749.266 146.288C751.634 147.76 754.482 148.496 757.81 148.496C761.714 148.496 764.882 147.312 767.314 144.944C769.746 142.64 770.962 139.12 770.962 134.384V126.128C769.234 128.624 766.834 130.704 763.762 132.368C760.754 134.032 757.298 134.864 753.394 134.864C748.914 134.864 744.818 133.712 741.106 131.408C737.394 129.104 734.45 125.872 732.273 121.712C730.161 117.488 729.105 112.656 729.105 107.216C729.105 101.84 730.161 97.072 732.273 92.912C734.45 88.752 737.362 85.552 741.01 83.312C744.722 81.072 748.85 79.952 753.394 79.952ZM770.962 107.408C770.962 104.144 770.322 101.36 769.042 99.056C767.762 96.688 766.034 94.896 763.858 93.68C761.682 92.4 759.346 91.76 756.85 91.76C754.354 91.76 752.05 92.368 749.938 93.584C747.826 94.8 746.098 96.592 744.754 98.96C743.474 101.264 742.834 104.016 742.834 107.216C742.834 110.416 743.474 113.232 744.754 115.664C746.098 118.032 747.826 119.856 749.938 121.136C752.114 122.416 754.418 123.056 756.85 123.056C759.346 123.056 761.682 122.448 763.858 121.232C766.034 119.952 767.762 118.16 769.042 115.856C770.322 113.488 770.962 110.672 770.962 107.408ZM821.24 134.864C816.12 134.864 811.512 133.744 807.416 131.504C803.32 129.2 800.088 125.968 797.72 121.808C795.416 117.648 794.264 112.848 794.264 107.408C794.264 101.968 795.448 97.168 797.816 93.008C800.248 88.848 803.544 85.648 807.704 83.408C811.864 81.104 816.504 79.952 821.624 79.952C826.744 79.952 831.384 81.104 835.544 83.408C839.704 85.648 842.968 88.848 845.336 93.008C847.768 97.168 848.984 101.968 848.984 107.408C848.984 112.848 847.736 117.648 845.24 121.808C842.808 125.968 839.48 129.2 835.256 131.504C831.096 133.744 826.424 134.864 821.24 134.864ZM821.24 123.152C823.672 123.152 825.944 122.576 828.056 121.424C830.232 120.208 831.96 118.416 833.24 116.048C834.52 113.68 835.16 110.8 835.16 107.408C835.16 102.352 833.816 98.48 831.128 95.792C828.504 93.04 825.272 91.664 821.432 91.664C817.592 91.664 814.36 93.04 811.736 95.792C809.176 98.48 807.896 102.352 807.896 107.408C807.896 112.464 809.144 116.368 811.64 119.12C814.2 121.808 817.4 123.152 821.24 123.152Z" fill="#151515"/>
<defs>
<linearGradient id="paint0_linear_2330_11" x1="124.075" y1="118.313" x2="140.062" y2="162.037" gradientUnits="userSpaceOnUse">
<stop offset="0.125" stop-color="#9C6CFE"/>
<stop offset="1" stop-color="#7A41DC"/>
</linearGradient>
<radialGradient id="paint1_radial_2330_11" cx="0" cy="0" r="1" gradientUnits="userSpaceOnUse" gradientTransform="translate(96.75 134.375) rotate(-7.36814) scale(49.7508 51.5518)">
<stop offset="0.392" stop-color="#3B148A"/>
<stop offset="1" stop-color="#3B148A" stop-opacity="0"/>
</radialGradient>
<linearGradient id="paint2_linear_2330_11" x1="42.525" y1="119.975" x2="62.5" y2="176.675" gradientUnits="userSpaceOnUse">
<stop offset="0.125" stop-color="#BD96FF"/>
<stop offset="1" stop-color="#9C6CFE"/>
</linearGradient>
<linearGradient id="paint3_linear_2330_11" x1="68.75" y1="105.8" x2="96.875" y2="199.238" gradientUnits="userSpaceOnUse">
<stop stop-color="#885EDB" stop-opacity="0"/>
<stop offset="1" stop-color="#E362F8"/>
</linearGradient>
<linearGradient id="paint4_linear_2330_11" x1="130.637" y1="56.65" x2="156.125" y2="97.3375" gradientUnits="userSpaceOnUse">
<stop offset="0.125" stop-color="#9C6CFE"/>
<stop offset="1" stop-color="#7A41DC"/>
</linearGradient>
<linearGradient id="paint5_linear_2330_11" x1="52.3625" y1="45.8125" x2="84.2125" y2="96.675" gradientUnits="userSpaceOnUse">
<stop offset="0.125" stop-color="#BD96FF"/>
<stop offset="1" stop-color="#9C6CFE"/>
</linearGradient>
</defs>
</svg>
